<mxfile host="app.diagrams.net" agent="Mozilla/5.0 (Windows NT 10.0; Win64; x64) AppleWebKit/537.36 (KHTML, like Gecko) Chrome/131.0.0.0 Safari/537.36 Edg/131.0.0.0" version="25.0.3">
  <diagram id="C5RBs43oDa-KdzZeNtuy" name="Page-1">
    <mxGraphModel dx="1917" dy="596" grid="1" gridSize="10" guides="1" tooltips="1" connect="1" arrows="1" fold="1" page="1" pageScale="1" pageWidth="827" pageHeight="1169" math="0" shadow="0">
      <root>
        <mxCell id="WIyWlLk6GJQsqaUBKTNV-0" />
        <mxCell id="WIyWlLk6GJQsqaUBKTNV-1" parent="WIyWlLk6GJQsqaUBKTNV-0" />
        <mxCell id="mvioNwK95yMqdUQ73LqQ-36" value="" style="swimlane;fontFamily=Sarabun;fontSource=https%3A%2F%2Ffonts.googleapis.com%2Fcss%3Ffamily%3DSarabun;" parent="WIyWlLk6GJQsqaUBKTNV-1" vertex="1">
          <mxGeometry x="-740" y="60" width="1270" height="2990" as="geometry" />
        </mxCell>
        <mxCell id="pXdczCPLqUhGzNIIeVMN-3" style="edgeStyle=orthogonalEdgeStyle;rounded=0;orthogonalLoop=1;jettySize=auto;html=1;" parent="mvioNwK95yMqdUQ73LqQ-36" source="mvioNwK95yMqdUQ73LqQ-35" edge="1">
          <mxGeometry relative="1" as="geometry">
            <mxPoint x="320" y="130" as="targetPoint" />
          </mxGeometry>
        </mxCell>
        <mxCell id="mvioNwK95yMqdUQ73LqQ-35" value="&lt;font data-font-src=&quot;https://fonts.googleapis.com/css?family=Sarabun&quot; face=&quot;Sarabun&quot;&gt;Start&lt;/font&gt;" style="ellipse;whiteSpace=wrap;html=1;" parent="mvioNwK95yMqdUQ73LqQ-36" vertex="1">
          <mxGeometry x="255" y="40" width="130" height="30" as="geometry" />
        </mxCell>
        <mxCell id="LV1sZ-8iKnYQwLrWcCL2-1" style="edgeStyle=orthogonalEdgeStyle;rounded=0;orthogonalLoop=1;jettySize=auto;html=1;" parent="mvioNwK95yMqdUQ73LqQ-36" source="LV1sZ-8iKnYQwLrWcCL2-0" edge="1">
          <mxGeometry relative="1" as="geometry">
            <mxPoint x="320" y="250" as="targetPoint" />
          </mxGeometry>
        </mxCell>
        <mxCell id="LV1sZ-8iKnYQwLrWcCL2-0" value="Declare &amp;amp; Init&lt;div&gt;1, 2, 4, 5, 8, 9 in array is int&lt;/div&gt;" style="rounded=0;whiteSpace=wrap;html=1;" parent="mvioNwK95yMqdUQ73LqQ-36" vertex="1">
          <mxGeometry x="215" y="130" width="210" height="60" as="geometry" />
        </mxCell>
        <mxCell id="LV1sZ-8iKnYQwLrWcCL2-3" style="edgeStyle=orthogonalEdgeStyle;rounded=0;orthogonalLoop=1;jettySize=auto;html=1;" parent="mvioNwK95yMqdUQ73LqQ-36" source="LV1sZ-8iKnYQwLrWcCL2-2" edge="1">
          <mxGeometry relative="1" as="geometry">
            <mxPoint x="320" y="420" as="targetPoint" />
          </mxGeometry>
        </mxCell>
        <mxCell id="LV1sZ-8iKnYQwLrWcCL2-2" value="BinarySearch( RealData, 6, 8 )" style="shape=process;whiteSpace=wrap;html=1;backgroundOutline=1;" parent="mvioNwK95yMqdUQ73LqQ-36" vertex="1">
          <mxGeometry x="205" y="250" width="230" height="60" as="geometry" />
        </mxCell>
        <mxCell id="LV1sZ-8iKnYQwLrWcCL2-50" style="edgeStyle=orthogonalEdgeStyle;rounded=0;orthogonalLoop=1;jettySize=auto;html=1;" parent="mvioNwK95yMqdUQ73LqQ-36" source="LV1sZ-8iKnYQwLrWcCL2-4" edge="1">
          <mxGeometry relative="1" as="geometry">
            <mxPoint x="320" y="600" as="targetPoint" />
          </mxGeometry>
        </mxCell>
        <mxCell id="LV1sZ-8iKnYQwLrWcCL2-4" value="Display &quot;Found in&quot; + BinarySearch( )" style="shape=parallelogram;perimeter=parallelogramPerimeter;whiteSpace=wrap;html=1;fixedSize=1;" parent="mvioNwK95yMqdUQ73LqQ-36" vertex="1">
          <mxGeometry x="191.25" y="420" width="257.5" height="60" as="geometry" />
        </mxCell>
        <mxCell id="LV1sZ-8iKnYQwLrWcCL2-7" style="edgeStyle=orthogonalEdgeStyle;rounded=0;orthogonalLoop=1;jettySize=auto;html=1;" parent="mvioNwK95yMqdUQ73LqQ-36" source="LV1sZ-8iKnYQwLrWcCL2-5" edge="1">
          <mxGeometry relative="1" as="geometry">
            <mxPoint x="755" y="170" as="targetPoint" />
          </mxGeometry>
        </mxCell>
        <mxCell id="LV1sZ-8iKnYQwLrWcCL2-5" value="BinarySearch()" style="ellipse;whiteSpace=wrap;html=1;" parent="mvioNwK95yMqdUQ73LqQ-36" vertex="1">
          <mxGeometry x="690" y="60" width="130" height="30" as="geometry" />
        </mxCell>
        <mxCell id="LV1sZ-8iKnYQwLrWcCL2-8" style="edgeStyle=orthogonalEdgeStyle;rounded=0;orthogonalLoop=1;jettySize=auto;html=1;" parent="mvioNwK95yMqdUQ73LqQ-36" source="LV1sZ-8iKnYQwLrWcCL2-6" edge="1">
          <mxGeometry relative="1" as="geometry">
            <mxPoint x="755" y="290" as="targetPoint" />
          </mxGeometry>
        </mxCell>
        <mxCell id="LV1sZ-8iKnYQwLrWcCL2-6" value="Declare &amp;amp; Init&amp;nbsp;&lt;div&gt;Output = -1&lt;/div&gt;&lt;div&gt;high = length of array&lt;/div&gt;&lt;div&gt;low = 0&lt;/div&gt;" style="rounded=0;whiteSpace=wrap;html=1;" parent="mvioNwK95yMqdUQ73LqQ-36" vertex="1">
          <mxGeometry x="650" y="170" width="210" height="60" as="geometry" />
        </mxCell>
        <mxCell id="6QENshx7tFi7yLKN-1VB-13" style="edgeStyle=orthogonalEdgeStyle;rounded=0;orthogonalLoop=1;jettySize=auto;html=1;entryX=0.5;entryY=0;entryDx=0;entryDy=0;" edge="1" parent="mvioNwK95yMqdUQ73LqQ-36" source="LV1sZ-8iKnYQwLrWcCL2-9" target="LV1sZ-8iKnYQwLrWcCL2-11">
          <mxGeometry relative="1" as="geometry" />
        </mxCell>
        <mxCell id="LV1sZ-8iKnYQwLrWcCL2-9" value="i = 0" style="rounded=0;whiteSpace=wrap;html=1;" parent="mvioNwK95yMqdUQ73LqQ-36" vertex="1">
          <mxGeometry x="695" y="290" width="120" height="60" as="geometry" />
        </mxCell>
        <mxCell id="LV1sZ-8iKnYQwLrWcCL2-46" style="edgeStyle=orthogonalEdgeStyle;rounded=0;orthogonalLoop=1;jettySize=auto;html=1;entryX=0.5;entryY=0;entryDx=0;entryDy=0;" parent="mvioNwK95yMqdUQ73LqQ-36" source="LV1sZ-8iKnYQwLrWcCL2-11" target="LV1sZ-8iKnYQwLrWcCL2-45" edge="1">
          <mxGeometry relative="1" as="geometry">
            <Array as="points">
              <mxPoint x="1070" y="500" />
              <mxPoint x="1070" y="2160" />
              <mxPoint x="755" y="2160" />
            </Array>
          </mxGeometry>
        </mxCell>
        <mxCell id="6QENshx7tFi7yLKN-1VB-1" style="edgeStyle=orthogonalEdgeStyle;rounded=0;orthogonalLoop=1;jettySize=auto;html=1;" edge="1" parent="mvioNwK95yMqdUQ73LqQ-36" source="LV1sZ-8iKnYQwLrWcCL2-11">
          <mxGeometry relative="1" as="geometry">
            <mxPoint x="755" y="630" as="targetPoint" />
          </mxGeometry>
        </mxCell>
        <mxCell id="LV1sZ-8iKnYQwLrWcCL2-11" value="low &amp;lt;= high" style="rhombus;whiteSpace=wrap;html=1;" parent="mvioNwK95yMqdUQ73LqQ-36" vertex="1">
          <mxGeometry x="715" y="460" width="80" height="80" as="geometry" />
        </mxCell>
        <mxCell id="LV1sZ-8iKnYQwLrWcCL2-13" value="&lt;font data-font-src=&quot;https://fonts.googleapis.com/css?family=Sarabun&quot; face=&quot;Sarabun&quot;&gt;return mid&lt;/font&gt;" style="ellipse;whiteSpace=wrap;html=1;" parent="mvioNwK95yMqdUQ73LqQ-36" vertex="1">
          <mxGeometry x="690" y="1030" width="130" height="30" as="geometry" />
        </mxCell>
        <mxCell id="LV1sZ-8iKnYQwLrWcCL2-17" style="edgeStyle=orthogonalEdgeStyle;rounded=0;orthogonalLoop=1;jettySize=auto;html=1;" parent="mvioNwK95yMqdUQ73LqQ-36" source="LV1sZ-8iKnYQwLrWcCL2-16" edge="1">
          <mxGeometry relative="1" as="geometry">
            <mxPoint x="755" y="1030" as="targetPoint" />
          </mxGeometry>
        </mxCell>
        <mxCell id="LV1sZ-8iKnYQwLrWcCL2-16" value="array[ mid ] == 8 ?" style="rhombus;whiteSpace=wrap;html=1;" parent="mvioNwK95yMqdUQ73LqQ-36" vertex="1">
          <mxGeometry x="695" y="860" width="120" height="120" as="geometry" />
        </mxCell>
        <mxCell id="LV1sZ-8iKnYQwLrWcCL2-18" value="Yes" style="text;html=1;align=center;verticalAlign=middle;resizable=0;points=[];autosize=1;strokeColor=none;fillColor=none;" parent="mvioNwK95yMqdUQ73LqQ-36" vertex="1">
          <mxGeometry x="690" y="990" width="40" height="30" as="geometry" />
        </mxCell>
        <mxCell id="LV1sZ-8iKnYQwLrWcCL2-39" value="Yes" style="text;html=1;align=center;verticalAlign=middle;resizable=0;points=[];autosize=1;strokeColor=none;fillColor=none;" parent="mvioNwK95yMqdUQ73LqQ-36" vertex="1">
          <mxGeometry x="715" y="540" width="40" height="30" as="geometry" />
        </mxCell>
        <mxCell id="LV1sZ-8iKnYQwLrWcCL2-43" style="edgeStyle=orthogonalEdgeStyle;rounded=0;orthogonalLoop=1;jettySize=auto;html=1;entryX=0.5;entryY=0;entryDx=0;entryDy=0;" parent="mvioNwK95yMqdUQ73LqQ-36" target="LV1sZ-8iKnYQwLrWcCL2-11" edge="1">
          <mxGeometry relative="1" as="geometry">
            <mxPoint x="755" y="420" as="sourcePoint" />
          </mxGeometry>
        </mxCell>
        <mxCell id="LV1sZ-8iKnYQwLrWcCL2-45" value="&lt;font data-font-src=&quot;https://fonts.googleapis.com/css?family=Sarabun&quot; face=&quot;Sarabun&quot;&gt;return Output&lt;/font&gt;" style="ellipse;whiteSpace=wrap;html=1;" parent="mvioNwK95yMqdUQ73LqQ-36" vertex="1">
          <mxGeometry x="690" y="2330" width="130" height="30" as="geometry" />
        </mxCell>
        <mxCell id="LV1sZ-8iKnYQwLrWcCL2-47" value="No" style="text;html=1;align=center;verticalAlign=middle;resizable=0;points=[];autosize=1;strokeColor=none;fillColor=none;" parent="mvioNwK95yMqdUQ73LqQ-36" vertex="1">
          <mxGeometry x="800" y="460" width="40" height="30" as="geometry" />
        </mxCell>
        <mxCell id="LV1sZ-8iKnYQwLrWcCL2-48" value="No" style="text;html=1;align=center;verticalAlign=middle;resizable=0;points=[];autosize=1;strokeColor=none;fillColor=none;" parent="mvioNwK95yMqdUQ73LqQ-36" vertex="1">
          <mxGeometry x="795" y="860" width="40" height="30" as="geometry" />
        </mxCell>
        <mxCell id="LV1sZ-8iKnYQwLrWcCL2-51" value="&lt;font data-font-src=&quot;https://fonts.googleapis.com/css?family=Sarabun&quot; face=&quot;Sarabun&quot;&gt;End&lt;/font&gt;" style="ellipse;whiteSpace=wrap;html=1;" parent="mvioNwK95yMqdUQ73LqQ-36" vertex="1">
          <mxGeometry x="255" y="600" width="130" height="30" as="geometry" />
        </mxCell>
        <mxCell id="6QENshx7tFi7yLKN-1VB-0" style="edgeStyle=orthogonalEdgeStyle;rounded=0;orthogonalLoop=1;jettySize=auto;html=1;exitX=1;exitY=0.5;exitDx=0;exitDy=0;entryX=1.004;entryY=0.395;entryDx=0;entryDy=0;entryPerimeter=0;" edge="1" parent="mvioNwK95yMqdUQ73LqQ-36" source="LV1sZ-8iKnYQwLrWcCL2-2" target="LV1sZ-8iKnYQwLrWcCL2-2">
          <mxGeometry relative="1" as="geometry" />
        </mxCell>
        <mxCell id="6QENshx7tFi7yLKN-1VB-6" style="edgeStyle=orthogonalEdgeStyle;rounded=0;orthogonalLoop=1;jettySize=auto;html=1;" edge="1" parent="mvioNwK95yMqdUQ73LqQ-36" source="6QENshx7tFi7yLKN-1VB-2" target="LV1sZ-8iKnYQwLrWcCL2-16">
          <mxGeometry relative="1" as="geometry" />
        </mxCell>
        <mxCell id="6QENshx7tFi7yLKN-1VB-2" value="mid&amp;nbsp; = low + (high - low)/2" style="rounded=0;whiteSpace=wrap;html=1;" vertex="1" parent="mvioNwK95yMqdUQ73LqQ-36">
          <mxGeometry x="655" y="630" width="200" height="60" as="geometry" />
        </mxCell>
        <mxCell id="6QENshx7tFi7yLKN-1VB-9" style="edgeStyle=orthogonalEdgeStyle;rounded=0;orthogonalLoop=1;jettySize=auto;html=1;" edge="1" parent="mvioNwK95yMqdUQ73LqQ-36" source="6QENshx7tFi7yLKN-1VB-7">
          <mxGeometry relative="1" as="geometry">
            <mxPoint x="745" y="1390" as="targetPoint" />
          </mxGeometry>
        </mxCell>
        <mxCell id="6QENshx7tFi7yLKN-1VB-15" style="edgeStyle=orthogonalEdgeStyle;rounded=0;orthogonalLoop=1;jettySize=auto;html=1;" edge="1" parent="mvioNwK95yMqdUQ73LqQ-36" source="6QENshx7tFi7yLKN-1VB-7" target="6QENshx7tFi7yLKN-1VB-14">
          <mxGeometry relative="1" as="geometry">
            <Array as="points">
              <mxPoint x="920" y="1295" />
              <mxPoint x="920" y="1635" />
              <mxPoint x="745" y="1635" />
            </Array>
          </mxGeometry>
        </mxCell>
        <mxCell id="6QENshx7tFi7yLKN-1VB-7" value="array[ mid ] &amp;lt; 8 ?" style="rhombus;whiteSpace=wrap;html=1;" vertex="1" parent="mvioNwK95yMqdUQ73LqQ-36">
          <mxGeometry x="690" y="1240" width="110" height="110" as="geometry" />
        </mxCell>
        <mxCell id="6QENshx7tFi7yLKN-1VB-8" style="edgeStyle=orthogonalEdgeStyle;rounded=0;orthogonalLoop=1;jettySize=auto;html=1;entryX=0.5;entryY=0;entryDx=0;entryDy=0;" edge="1" parent="mvioNwK95yMqdUQ73LqQ-36" source="LV1sZ-8iKnYQwLrWcCL2-16" target="6QENshx7tFi7yLKN-1VB-7">
          <mxGeometry relative="1" as="geometry">
            <Array as="points">
              <mxPoint x="840" y="920" />
              <mxPoint x="840" y="1182" />
              <mxPoint x="745" y="1182" />
            </Array>
          </mxGeometry>
        </mxCell>
        <mxCell id="6QENshx7tFi7yLKN-1VB-10" value="low = mid + 1" style="rounded=0;whiteSpace=wrap;html=1;" vertex="1" parent="mvioNwK95yMqdUQ73LqQ-36">
          <mxGeometry x="650" y="1390" width="200" height="60" as="geometry" />
        </mxCell>
        <mxCell id="6QENshx7tFi7yLKN-1VB-11" value="high = mid - 1" style="rounded=0;whiteSpace=wrap;html=1;" vertex="1" parent="mvioNwK95yMqdUQ73LqQ-36">
          <mxGeometry x="685" y="1850" width="120" height="60" as="geometry" />
        </mxCell>
        <mxCell id="6QENshx7tFi7yLKN-1VB-16" style="edgeStyle=orthogonalEdgeStyle;rounded=0;orthogonalLoop=1;jettySize=auto;html=1;entryX=0.5;entryY=0;entryDx=0;entryDy=0;" edge="1" parent="mvioNwK95yMqdUQ73LqQ-36" source="6QENshx7tFi7yLKN-1VB-14" target="6QENshx7tFi7yLKN-1VB-11">
          <mxGeometry relative="1" as="geometry" />
        </mxCell>
        <mxCell id="6QENshx7tFi7yLKN-1VB-17" style="edgeStyle=orthogonalEdgeStyle;rounded=0;orthogonalLoop=1;jettySize=auto;html=1;" edge="1" parent="mvioNwK95yMqdUQ73LqQ-36" source="6QENshx7tFi7yLKN-1VB-14">
          <mxGeometry relative="1" as="geometry">
            <mxPoint x="760" y="417.5" as="targetPoint" />
            <Array as="points">
              <mxPoint x="570" y="1748" />
              <mxPoint x="570" y="417" />
            </Array>
          </mxGeometry>
        </mxCell>
        <mxCell id="6QENshx7tFi7yLKN-1VB-14" value="array[ mid ] &amp;gt; 8 ?" style="rhombus;whiteSpace=wrap;html=1;" vertex="1" parent="mvioNwK95yMqdUQ73LqQ-36">
          <mxGeometry x="690" y="1693" width="110" height="110" as="geometry" />
        </mxCell>
      </root>
    </mxGraphModel>
  </diagram>
</mxfile>
